<svg width="430" height="284" viewBox="0 0 430 284" fill="none" xmlns="http://www.w3.org/2000/svg">
<rect width="430" height="284" fill="#F5F5F5"/>
<rect width="430" height="284" rx="8" fill="#EEEEEE" fill-opacity="0.933333"/>
<path d="M16.625 201.469H37.9531C47.0781 201.469 53.9844 202.75 58.6719 205.312C63.3594 207.875 65.7031 212.375 65.7031 218.812C65.7031 221.406 65.2812 223.75 64.4375 225.844C63.625 227.938 62.4375 229.656 60.875 231C59.3125 232.344 57.4062 233.219 55.1562 233.625V234.094C57.4375 234.562 59.5 235.375 61.3438 236.531C63.1875 237.656 64.6562 239.312 65.75 241.5C66.875 243.656 67.4375 246.531 67.4375 250.125C67.4375 254.281 66.4219 257.844 64.3906 260.812C62.3594 263.781 59.4531 266.062 55.6719 267.656C51.9219 269.219 47.4531 270 42.2656 270H16.625V201.469ZM31.1562 228.609H39.5938C43.8125 228.609 46.7344 227.953 48.3594 226.641C49.9844 225.297 50.7969 223.328 50.7969 220.734C50.7969 218.109 49.8281 216.234 47.8906 215.109C45.9844 213.953 42.9531 213.375 38.7969 213.375H31.1562V228.609ZM31.1562 240.141V258H40.625C45 258 48.0469 257.156 49.7656 255.469C51.4844 253.781 52.3438 251.516 52.3438 248.672C52.3438 246.984 51.9688 245.5 51.2188 244.219C50.4688 242.938 49.2031 241.938 47.4219 241.219C45.6719 240.5 43.25 240.141 40.1562 240.141H31.1562ZM143.328 235.641C143.328 240.922 142.672 245.734 141.359 250.078C140.047 254.391 138.047 258.109 135.359 261.234C132.703 264.359 129.328 266.766 125.234 268.453C121.141 270.109 116.297 270.938 110.703 270.938C105.109 270.938 100.266 270.109 96.1719 268.453C92.0781 266.766 88.6875 264.359 86 261.234C83.3438 258.109 81.3594 254.375 80.0469 250.031C78.7344 245.688 78.0781 240.859 78.0781 235.547C78.0781 228.453 79.2344 222.281 81.5469 217.031C83.8906 211.75 87.4844 207.656 92.3281 204.75C97.1719 201.844 103.328 200.391 110.797 200.391C118.234 200.391 124.344 201.844 129.125 204.75C133.938 207.656 137.5 211.75 139.812 217.031C142.156 222.312 143.328 228.516 143.328 235.641ZM93.3125 235.641C93.3125 240.422 93.9062 244.547 95.0938 248.016C96.3125 251.453 98.2031 254.109 100.766 255.984C103.328 257.828 106.641 258.75 110.703 258.75C114.828 258.75 118.172 257.828 120.734 255.984C123.297 254.109 125.156 251.453 126.312 248.016C127.5 244.547 128.094 240.422 128.094 235.641C128.094 228.453 126.75 222.797 124.062 218.672C121.375 214.547 116.953 212.484 110.797 212.484C106.703 212.484 103.359 213.422 100.766 215.297C98.2031 217.141 96.3125 219.797 95.0938 223.266C93.9062 226.703 93.3125 230.828 93.3125 235.641ZM183.969 270H169.438V213.562H150.828V201.469H202.578V213.562H183.969V270Z" fill="#313131"/>
<path d="M38.5156 57.4688C47.3594 57.4688 53.8125 59.375 57.875 63.1875C61.9375 66.9688 63.9688 72.1875 63.9688 78.8438C63.9688 81.8438 63.5156 84.7188 62.6094 87.4688C61.7031 90.1875 60.2188 92.6094 58.1562 94.7344C56.125 96.8594 53.4062 98.5469 50 99.7969C46.5938 101.016 42.3906 101.625 37.3906 101.625H31.1562V126H16.625V57.4688H38.5156ZM37.7656 69.375H31.1562V89.7188H35.9375C38.6562 89.7188 41.0156 89.3594 43.0156 88.6406C45.0156 87.9219 46.5625 86.7969 47.6562 85.2656C48.75 83.7344 49.2969 81.7656 49.2969 79.3594C49.2969 75.9844 48.3594 73.4844 46.4844 71.8594C44.6094 70.2031 41.7031 69.375 37.7656 69.375ZM139.109 91.6406C139.109 96.9219 138.453 101.734 137.141 106.078C135.828 110.391 133.828 114.109 131.141 117.234C128.484 120.359 125.109 122.766 121.016 124.453C116.922 126.109 112.078 126.938 106.484 126.938C100.891 126.938 96.0469 126.109 91.9531 124.453C87.8594 122.766 84.4688 120.359 81.7812 117.234C79.125 114.109 77.1406 110.375 75.8281 106.031C74.5156 101.688 73.8594 96.8594 73.8594 91.5469C73.8594 84.4531 75.0156 78.2812 77.3281 73.0312C79.6719 67.75 83.2656 63.6562 88.1094 60.75C92.9531 57.8438 99.1094 56.3906 106.578 56.3906C114.016 56.3906 120.125 57.8438 124.906 60.75C129.719 63.6562 133.281 67.75 135.594 73.0312C137.938 78.3125 139.109 84.5156 139.109 91.6406ZM89.0938 91.6406C89.0938 96.4219 89.6875 100.547 90.875 104.016C92.0938 107.453 93.9844 110.109 96.5469 111.984C99.1094 113.828 102.422 114.75 106.484 114.75C110.609 114.75 113.953 113.828 116.516 111.984C119.078 110.109 120.938 107.453 122.094 104.016C123.281 100.547 123.875 96.4219 123.875 91.6406C123.875 84.4531 122.531 78.7969 119.844 74.6719C117.156 70.5469 112.734 68.4844 106.578 68.4844C102.484 68.4844 99.1406 69.4219 96.5469 71.2969C93.9844 73.1406 92.0938 75.7969 90.875 79.2656C89.6875 82.7031 89.0938 86.8281 89.0938 91.6406ZM210.172 91.0781C210.172 98.7969 208.688 105.25 205.719 110.438C202.781 115.594 198.516 119.484 192.922 122.109C187.328 124.703 180.594 126 172.719 126H153.312V57.4688H174.828C182.016 57.4688 188.25 58.75 193.531 61.3125C198.812 63.8438 202.906 67.6094 205.812 72.6094C208.719 77.5781 210.172 83.7344 210.172 91.0781ZM195.078 91.4531C195.078 86.3906 194.328 82.2344 192.828 78.9844C191.359 75.7031 189.172 73.2812 186.266 71.7188C183.391 70.1562 179.828 69.375 175.578 69.375H167.844V114H174.078C181.172 114 186.438 112.109 189.875 108.328C193.344 104.547 195.078 98.9219 195.078 91.4531Z" fill="#313131"/>
<path d="M42.4453 143.148C40.1276 143.148 38.0703 143.604 36.2734 144.516C34.5026 145.401 33.0052 146.69 31.7812 148.383C30.5833 150.076 29.6719 152.12 29.0469 154.516C28.4219 156.911 28.1094 159.607 28.1094 162.602C28.1094 166.638 28.6042 170.089 29.5938 172.953C30.6094 175.792 32.1719 177.966 34.2812 179.477C36.3906 180.961 39.112 181.703 42.4453 181.703C44.763 181.703 47.0807 181.443 49.3984 180.922C51.7422 180.401 54.2812 179.659 57.0156 178.695V188.852C54.4896 189.893 52.0026 190.635 49.5547 191.078C47.1068 191.547 44.3594 191.781 41.3125 191.781C35.4271 191.781 30.5833 190.57 26.7812 188.148C23.0052 185.701 20.2057 182.289 18.3828 177.914C16.5599 173.513 15.6484 168.383 15.6484 162.523C15.6484 158.201 16.2344 154.242 17.4062 150.648C18.5781 147.055 20.2969 143.943 22.5625 141.312C24.8281 138.682 27.6276 136.651 30.9609 135.219C34.2943 133.786 38.1224 133.07 42.4453 133.07C45.2839 133.07 48.1224 133.435 50.9609 134.164C53.8255 134.867 56.5599 135.844 59.1641 137.094L55.2578 146.938C53.1224 145.922 50.974 145.036 48.8125 144.281C46.651 143.526 44.5286 143.148 42.4453 143.148ZM104.164 191L100.023 177.406H79.2031L75.0625 191H62.0156L82.1719 133.656H96.9766L117.211 191H104.164ZM97.1328 167.25L92.9922 153.969C92.7318 153.083 92.3802 151.951 91.9375 150.57C91.5208 149.164 91.0911 147.745 90.6484 146.312C90.2318 144.854 89.8932 143.591 89.6328 142.523C89.3724 143.591 89.0078 144.919 88.5391 146.508C88.0964 148.07 87.6667 149.555 87.25 150.961C86.8333 152.367 86.5339 153.37 86.3516 153.969L82.25 167.25H97.1328ZM158.148 175.141C158.148 178.526 157.328 181.469 155.688 183.969C154.047 186.469 151.651 188.396 148.5 189.75C145.375 191.104 141.573 191.781 137.094 191.781C135.115 191.781 133.174 191.651 131.273 191.391C129.398 191.13 127.589 190.753 125.844 190.258C124.125 189.737 122.484 189.099 120.922 188.344V177.094C123.63 178.292 126.443 179.372 129.359 180.336C132.276 181.299 135.167 181.781 138.031 181.781C140.01 181.781 141.599 181.521 142.797 181C144.021 180.479 144.906 179.763 145.453 178.852C146 177.94 146.273 176.898 146.273 175.727C146.273 174.294 145.792 173.07 144.828 172.055C143.865 171.039 142.536 170.089 140.844 169.203C139.177 168.318 137.289 167.367 135.18 166.352C133.852 165.727 132.406 164.971 130.844 164.086C129.281 163.174 127.797 162.068 126.391 160.766C124.984 159.464 123.826 157.888 122.914 156.039C122.029 154.164 121.586 151.924 121.586 149.32C121.586 145.909 122.367 142.992 123.93 140.57C125.492 138.148 127.719 136.299 130.609 135.023C133.526 133.721 136.964 133.07 140.922 133.07C143.891 133.07 146.716 133.422 149.398 134.125C152.107 134.802 154.932 135.792 157.875 137.094L153.969 146.508C151.339 145.44 148.982 144.62 146.898 144.047C144.815 143.448 142.693 143.148 140.531 143.148C139.021 143.148 137.732 143.396 136.664 143.891C135.596 144.359 134.789 145.036 134.242 145.922C133.695 146.781 133.422 147.784 133.422 148.93C133.422 150.284 133.812 151.43 134.594 152.367C135.401 153.279 136.599 154.164 138.188 155.023C139.802 155.883 141.807 156.885 144.203 158.031C147.12 159.411 149.607 160.857 151.664 162.367C153.747 163.852 155.349 165.609 156.469 167.641C157.589 169.646 158.148 172.146 158.148 175.141ZM190.531 191H178.422V143.969H162.914V133.891H206.039V143.969H190.531V191Z" fill="#313131"/>
</svg>
